<svg width="123" height="49" viewBox="0 0 123 49" fill="none" xmlns="http://www.w3.org/2000/svg">
<g clip-path="url(#clip0_1304_57)">
<path d="M38.9675 15.3559C38.7752 13.4181 37.9097 11.6084 36.521 10.2403C36.3005 10.0311 36.0665 9.83645 35.8205 9.65773C35.9078 10.2659 35.9469 10.8799 35.9373 11.4942C35.9373 11.5386 35.9317 11.5886 35.9317 11.6329C35.9317 11.7495 35.9261 11.8604 35.9206 11.9769C35.915 12.0768 35.9094 12.1822 35.9039 12.2876C35.648 15.8608 34.019 19.9388 31.189 23.7283C30.5401 24.596 29.8441 25.4276 29.1041 26.2193C29.0262 26.3083 28.9374 26.4024 28.8539 26.4912L28.8261 26.5189C24.2724 31.2962 18.7402 34.0648 14.0976 34.3311C13.307 34.3842 12.5129 34.3526 11.7291 34.2368L12.046 33.4767L15.224 25.8295C15.7703 24.4574 15.8553 24.2382 16.2327 23.3418C16.5874 22.4912 16.8265 21.9686 17.4632 20.5704L20.0134 14.4404L21.6091 10.6344L21.7981 10.1905L21.9983 9.70786L22.1484 10.0629L22.2485 10.2904L23.1826 12.4598L23.4828 13.1589L28.5592 24.9489C28.6537 24.849 28.7427 24.7492 28.8261 24.6438C29.4711 23.9114 30.066 23.1568 30.6164 22.3965L28.8261 18.241L25.9462 11.5386L25.8294 11.2723L24.9564 9.2472L24.8951 9.1085L24.417 7.99885L23.5552 5.99047L22.4043 3.31047L21.965 2.29516L21.2589 0.652832H19.969L19.0516 2.8555L18.7513 3.57124L18.0174 5.3245L15.104 12.2766L14.0643 14.7566L12.2406 19.1176L11.6177 20.6046L7.93162 29.4098L6.93084 31.7955L6.91975 31.8233L6.53603 32.7332L6.47482 32.8774C6.43606 33.0828 5.15698 36.1399 5.01256 36.3673C4.5674 37.0305 3.96852 37.5767 3.26673 37.9597C2.68258 38.3067 2.037 38.5384 1.36516 38.6421C1.29846 38.6754 1.22067 38.7087 1.14838 38.7365C0.781749 38.877 0.389685 38.9394 -0.00256348 38.9195L-0.00256348 40.0403H17.5838C21.1199 39.724 25.1064 37.8876 28.8261 34.947C29.8492 34.1355 30.8187 33.2589 31.7284 32.3226C31.8118 32.2394 31.8951 32.1563 31.9786 32.0674C32.6458 31.3627 33.2685 30.647 33.8468 29.9091C36.6936 26.3027 38.4338 22.38 38.9176 18.8625C39.089 17.701 39.1058 16.5219 38.9675 15.3559ZM32.896 27.7007C32.2481 28.5385 31.5261 29.3165 30.7387 30.0253C30.1383 30.6024 29.5007 31.1609 28.8261 31.7009C28.7427 31.7731 28.6537 31.8452 28.5648 31.9118C23.9499 35.5408 18.7791 37.4104 14.5202 37.3549C13.5409 37.3542 12.5656 37.2293 11.6179 36.9831V35.8735C12.4941 36.0508 13.3872 36.1309 14.2811 36.1121C18.4788 36.0677 23.4996 34.2034 27.9921 30.6692C28.2757 30.4472 28.5536 30.2198 28.8261 29.9867C29.3041 29.5873 29.7601 29.1767 30.1939 28.755C30.9611 28.024 31.6816 27.2457 32.3512 26.4247C36.1102 22.1117 37.6027 17.0179 37.1088 13.4917C37.081 13.4195 37.0324 13.2387 37.0102 13.1721C37.0947 13.3279 37.1703 13.4883 37.2367 13.6525C38.6592 17.4664 36.546 22.6151 32.896 27.7007Z" fill="#BFC2C7"/>
<path d="M40.9763 38.7672V40.0434H28.8279V38.7672C29.4159 38.9612 30.0566 38.9174 30.6126 38.6452L30.6793 38.6119C31.2047 38.6323 31.7222 38.4803 32.1527 38.1791C32.5486 37.914 32.8576 37.5386 33.0415 37.0997C33.2253 36.6607 33.2759 36.1776 33.1869 35.7102C33.1838 35.7073 33.1818 35.7034 33.1814 35.6991C33.1255 35.4181 33.0119 35.1518 32.8477 34.9168C32.8477 34.9113 32.8422 34.9113 32.8422 34.9057L32.2417 33.5131C32.3362 33.4243 32.4252 33.33 32.5197 33.2356C33.1814 32.5587 33.8041 31.8597 34.3767 31.1439C36.8341 28.1034 38.4522 24.8188 39.1248 21.7617C39.0707 25.2237 38.3358 28.6414 36.962 31.8208C36.5951 32.6975 36.1892 33.5353 35.7556 34.3398L36.7399 36.62C36.8199 36.8323 36.9264 37.0336 37.0568 37.2193C37.2866 37.5614 37.5881 37.8497 37.9403 38.0642C38.2926 38.2788 38.6874 38.4145 39.0973 38.4621C39.1378 38.493 39.1806 38.5208 39.2252 38.5453C39.4843 38.705 39.7746 38.8074 40.0767 38.8457C40.3787 38.884 40.6855 38.8572 40.9763 38.7672Z" fill="#BFC2C7"/>
<path d="M11.6881 34.3269L21.9884 9.70972" stroke="#BFC2C7" stroke-width="0.196491"/>
<path d="M19.6784 28.2526C19.5972 27.7808 19.8138 27.3085 20.2186 27.0529C21.6677 26.1378 22.6141 25.4126 23.8288 24.2802C24.1545 23.9766 24.622 23.8752 25.0406 24.0267L26.4316 24.5302C27.2142 24.8135 27.4583 25.8025 26.8733 26.3945C25.1586 28.1299 23.7048 29.2398 21.6098 30.4547C20.9203 30.8545 20.0532 30.4311 19.9181 29.6456L19.6784 28.2526Z" fill="#BFC2C7"/>
</g>
<path d="M55.2091 20.4203C55.9234 20.4203 56.5268 20.5681 57.0193 20.8637C57.5365 21.1592 57.9183 21.5409 58.1646 22.0089C58.4355 22.4522 58.5709 22.9571 58.5709 23.5235C58.5709 24.2378 58.3493 24.8535 57.906 25.3707C57.4873 25.8632 56.9208 26.1095 56.2066 26.1095C55.5909 26.1095 55.0614 25.9248 54.6181 25.5554C54.1994 25.186 53.99 24.6811 53.99 24.0407C53.99 23.4989 54.1255 23.0433 54.3964 22.6739C54.692 22.2798 55.0244 21.9719 55.3939 21.7503C55.1476 21.5533 54.852 21.4671 54.5072 21.4917C53.8423 21.5163 53.2266 21.738 52.6601 22.1567C52.0936 22.5507 51.6134 23.0679 51.2193 23.7082C50.8253 24.324 50.5174 24.9889 50.2958 25.7032C50.0741 26.4174 49.9633 27.0824 49.9633 27.6981V36.1949C49.9633 37.4017 50.2958 38.2144 50.9607 38.6331C51.6257 39.0272 52.5493 39.2242 53.7314 39.2242V40C53.165 39.9754 52.3522 39.9507 51.2932 39.9261C50.2588 39.8769 49.1629 39.8522 48.0053 39.8522C47.1187 39.8522 46.2321 39.8769 45.3454 39.9261C44.4588 39.9507 43.7815 39.9754 43.3136 40V39.2242C44.2741 39.2242 44.9514 39.0395 45.3454 38.6701C45.7641 38.3006 45.9735 37.5987 45.9735 36.5643V24.9643C45.9735 23.856 45.7887 23.0433 45.4193 22.5261C45.0499 21.9843 44.348 21.7133 43.3136 21.7133V20.9375C44.1017 21.0114 44.8652 21.0484 45.604 21.0484C46.4414 21.0484 47.2172 21.0114 47.9314 20.9375C48.6703 20.839 49.3476 20.7036 49.9633 20.5312V24.7796C50.2588 24.0654 50.6529 23.3758 51.1454 22.7108C51.638 22.0458 52.2291 21.504 52.9187 21.0853C53.6083 20.642 54.3718 20.4203 55.2091 20.4203ZM65.6146 11.0369V36.5643C65.6146 37.5987 65.787 38.3006 66.1318 38.6701C66.5012 39.0395 67.1169 39.2242 67.9789 39.2242V40C67.5602 39.9754 66.9322 39.9507 66.0948 39.9261C65.2821 39.8769 64.4571 39.8522 63.6197 39.8522C62.7577 39.8522 61.8711 39.8769 60.9598 39.9261C60.0732 39.9507 59.4082 39.9754 58.9649 40V39.2242C59.9254 39.2242 60.6027 39.0395 60.9968 38.6701C61.4154 38.3006 61.6248 37.5987 61.6248 36.5643V15.47C61.6248 14.3617 61.4277 13.549 61.0337 13.0318C60.6643 12.49 59.9747 12.2191 58.9649 12.2191V11.4433C59.753 11.5171 60.5165 11.5541 61.2553 11.5541C62.0681 11.5541 62.8439 11.5171 63.5827 11.4433C64.3216 11.3447 64.9989 11.2093 65.6146 11.0369ZM77.4363 20.9375V21.6764C76.7713 21.7749 76.131 21.9966 75.5153 22.3414C74.8995 22.6862 74.2961 23.1664 73.7051 23.7821L69.2719 28.4369L69.7522 27.5134L76.4388 37.3032C76.8082 37.8204 77.1654 38.2514 77.5102 38.5962C77.855 38.9163 78.286 39.1257 78.8032 39.2242V40C78.483 39.9754 78.0027 39.9507 77.3624 39.9261C76.7467 39.8769 76.131 39.8522 75.5153 39.8522C74.7025 39.8522 73.8775 39.8769 73.0401 39.9261C72.2027 39.9507 71.587 39.9754 71.1929 40V39.2242C71.6855 39.2242 72.018 39.1011 72.1904 38.8548C72.3874 38.6085 72.3628 38.3129 72.1165 37.9681L68.0528 31.614C67.6341 31.0229 67.2524 30.6412 66.9076 30.4688C66.5628 30.2964 66.0702 30.1979 65.4299 30.1732V29.4344C66.1441 29.3605 66.7229 29.225 67.1662 29.028C67.6341 28.831 68.0651 28.5108 68.4592 28.0675L71.2299 25.2598C72.018 24.4717 72.4121 23.8191 72.4121 23.3019C72.4121 22.7601 72.1535 22.366 71.6363 22.1197C71.1437 21.8488 70.4787 21.701 69.6414 21.6764V20.9375C70.3063 20.9622 71.0329 20.9991 71.821 21.0484C72.6337 21.073 73.311 21.0853 73.8528 21.0853C74.2961 21.0853 74.7395 21.0853 75.1828 21.0853C75.6507 21.0607 76.0817 21.0361 76.4758 21.0114C76.8698 20.9868 77.19 20.9622 77.4363 20.9375Z" fill="#BFC2C7"/>
<path d="M91.6333 14.5838C90.8035 14.6199 90.2022 14.7161 89.8294 14.8724C89.4566 15.0288 89.2041 15.3174 89.0718 15.7383C88.9395 16.1592 88.8734 16.8326 88.8734 17.7586V36.0857C88.8734 37.0116 88.9395 37.6851 89.0718 38.106C89.2041 38.5269 89.4566 38.8155 89.8294 38.9718C90.2022 39.1281 90.8035 39.2243 91.6333 39.2604V40C90.3225 39.9278 88.4645 39.8918 86.0594 39.8918C83.4258 39.8918 81.4836 39.9278 80.233 40V39.2604C81.0507 39.2243 81.646 39.1281 82.0188 38.9718C82.3916 38.8155 82.6441 38.5269 82.7764 38.106C82.9207 37.6851 82.9928 37.0116 82.9928 36.0857V17.7586C82.9928 16.8326 82.9207 16.1592 82.7764 15.7383C82.6441 15.3174 82.3916 15.0288 82.0188 14.8724C81.646 14.7161 81.0507 14.6199 80.233 14.5838V13.8442C81.4716 13.9164 83.4137 13.9525 86.0594 13.9525C88.4645 13.9525 90.3225 13.9164 91.6333 13.8442V14.5838ZM94.1226 13.8442C95.6979 13.9284 97.1831 13.9705 98.5781 13.9705L99.7325 13.9525C103.196 13.8803 105.126 13.8442 105.523 13.8442C110.333 13.8442 113.929 14.9326 116.31 17.1092C118.703 19.2858 119.9 22.4606 119.9 26.6335C119.9 29.3152 119.316 31.6662 118.15 33.6865C116.983 35.6948 115.294 37.2521 113.081 38.3585C110.868 39.4528 108.241 40 105.198 40C104.837 40 103.99 39.982 102.655 39.9459C101.332 39.9098 100.382 39.8918 99.8047 39.8918C97.2673 39.8918 95.3732 39.9278 94.1226 40V39.2604C94.9403 39.2243 95.5356 39.1281 95.9084 38.9718C96.2812 38.8155 96.5337 38.5269 96.666 38.106C96.8103 37.6851 96.8824 37.0116 96.8824 36.0857V17.7586C96.8824 16.8326 96.8103 16.1592 96.666 15.7383C96.5337 15.3174 96.2812 15.0288 95.9084 14.8724C95.5356 14.7161 94.9403 14.6199 94.1226 14.5838V13.8442ZM102.763 36.1578C102.763 37.0477 102.835 37.7151 102.979 38.1601C103.124 38.593 103.388 38.8997 103.773 39.08C104.158 39.2484 104.741 39.3326 105.523 39.3326C107.555 39.3326 109.173 38.8576 110.375 37.9075C111.59 36.9455 112.456 35.5505 112.973 33.7226C113.502 31.8827 113.766 29.5678 113.766 26.7778C113.766 23.9758 113.484 21.6789 112.919 19.8871C112.365 18.0833 111.482 16.7364 110.267 15.8465C109.052 14.9566 107.459 14.5117 105.487 14.5117C104.717 14.5117 104.14 14.6019 103.755 14.7822C103.382 14.9506 103.124 15.2573 102.979 15.7022C102.835 16.1472 102.763 16.8086 102.763 17.6864V36.1578Z" fill="#D4AF37"/>
<defs>
<clipPath id="clip0_1304_57">
<rect width="40.9773" height="39.3875" fill="white" transform="translate(0 0.652588)"/>
</clipPath>
</defs>
</svg>
