<svg width="20" height="20" viewBox="0 0 20 20" fill="none" xmlns="http://www.w3.org/2000/svg">
<path d="M5.58527 10.9681L7.25891 12.4121V5.13157C7.25891 4.36856 7.87342 3.75 8.63148 3.75C9.38948 3.75 10.004 4.36855 10.004 5.13157V8.8595L12.3475 9.2365C13.8601 9.46492 14.6164 9.57908 15.1491 9.90033C16.0291 10.431 16.6666 11.2279 16.6666 12.3912C16.6666 13.2016 16.4676 13.7452 15.984 15.2058C15.6771 16.1326 15.5236 16.596 15.2734 16.9628C14.8614 17.5667 14.2536 18.0077 13.5541 18.2102C13.1292 18.3332 12.644 18.3332 11.6734 18.3332H10.8507C9.56039 18.3332 8.91523 18.3332 8.34089 18.0948C8.23785 18.0521 8.13719 18.0038 8.03929 17.9503C7.49334 17.6519 7.08651 17.1479 6.27284 16.1399L3.63873 12.8766C3.23395 12.3751 3.23125 11.6574 3.63224 11.1529C4.11421 10.5464 4.99949 10.4627 5.58527 10.9681Z" fill="#F2F2F2" stroke="#F2F2F2" stroke-width="1.5" stroke-linecap="round" stroke-linejoin="round"/>
<path d="M11.9303 4.99984C11.9303 3.15889 10.4379 1.6665 8.597 1.6665C6.75605 1.6665 5.26367 3.15889 5.26367 4.99984" stroke="#F2F2F2" stroke-width="1.5" stroke-linecap="round" stroke-linejoin="round"/>
</svg>
