<svg width="20" height="20" viewBox="0 0 20 20" fill="none" xmlns="http://www.w3.org/2000/svg">
<path d="M9.56191 14.4217C12.0728 11.7351 14.4968 9.91258 17.5417 7.33163C18.4531 6.5591 18.5938 5.20498 17.8789 4.2456C17.1191 3.22598 15.6752 3.02218 14.698 3.83277C11.9089 6.14617 9.73899 8.37366 7.68065 10.7544C7.57264 10.8793 7.51863 10.9418 7.46258 10.977C7.32043 11.0662 7.14281 11.0671 6.99974 10.9794C6.94332 10.9448 6.88921 10.8836 6.78101 10.7611L5.68418 9.51925C4.68341 8.38608 2.88839 8.51158 2.05281 9.773C1.46808 10.6557 1.55473 11.8256 2.26305 12.6113L3.98299 14.5192C5.26944 15.9462 5.91266 16.6598 6.68486 16.6667C7.45706 16.6737 8.15868 15.9231 9.56191 14.4217Z" fill="#F2F2F2" stroke="#F2F2F2" stroke-width="1.5"/>
</svg>
